RBDS025runT25_grf
version=1
nRows=18
nColumns=19
inDegrees=no
endheader
time	ground_force_r_vx	ground_force_r_vy	ground_force_r_vz	ground_force_r_px	ground_force_r_py	ground_force_r_pz	ground_force_r_mx	ground_force_r_my	ground_force_r_mz	ground_force_l_vx	ground_force_l_vy	ground_force_l_vz	ground_force_l_px	ground_force_l_py	ground_force_l_pz	ground_force_l_mx	ground_force_l_my	ground_force_l_mz
     14.99900000	     96.67537652	   1043.57739226	    -14.63973871	      2.00147567	      0.00000000	      1.00973131	     -0.00000000	      4.67805705	     -0.00000000	      0.00000000	      0.00000000	      0.00000000	      0.00000000	      0.00000000	      0.00000000	      0.00000000	      0.00000000	      0.00000000
     15.00000000	     98.67600678	   1031.70582095	    -13.75094231	      1.99928226	      0.00000000	      1.00966333	     -0.00000000	      4.58556334	     -0.00000000	      0.00000000	      0.00000000	      0.00000000	      0.00000000	      0.00000000	      0.00000000	      0.00000000	      0.00000000	      0.00000000
     15.00100000	    100.44799547	   1019.34667212	    -12.88683879	      1.99706600	      0.00000000	      1.00958863	     -0.00000000	      4.49006946	     -0.00000000	      0.00000000	      0.00000000	      0.00000000	      0.00000000	      0.00000000	      0.00000000	      0.00000000	      0.00000000	      0.00000000
     15.00200000	    102.21998416	   1006.98752329	    -12.02273526	      1.99484973	      0.00000000	      1.00951394	     -0.00000000	      4.39457559	     -0.00000000	      0.00000000	      0.00000000	      0.00000000	      0.00000000	      0.00000000	      0.00000000	      0.00000000	      0.00000000	      0.00000000
     15.00300000	    103.99197285	    994.62837446	    -11.15863174	      1.99263347	      0.00000000	      1.00943924	     -0.00000000	      4.29908171	     -0.00000000	      0.00000000	      0.00000000	      0.00000000	      0.00000000	      0.00000000	      0.00000000	      0.00000000	      0.00000000	      0.00000000
     15.00400000	    105.59648292	    981.97767896	    -10.31911018	      1.99040354	      0.00000000	      1.00936242	     -0.00000000	      4.20221855	     -0.00000000	      0.00000000	      0.00000000	      0.00000000	      0.00000000	      0.00000000	      0.00000000	      0.00000000	      0.00000000	      0.00000000
     15.00500000	    107.11725366	    969.18121011	     -9.49187960	      1.98816678	      0.00000000	      1.00928455	     -0.00000000	      4.10467075	     -0.00000000	      0.00000000	      0.00000000	      0.00000000	      0.00000000	      0.00000000	      0.00000000	      0.00000000	      0.00000000	      0.00000000
     15.00600000	    108.63802441	    956.38474127	     -8.66464902	      1.98593003	      0.00000000	      1.00920667	     -0.00000000	      4.00712296	     -0.00000000	      0.00000000	      0.00000000	      0.00000000	      0.00000000	      0.00000000	      0.00000000	      0.00000000	      0.00000000	      0.00000000
     15.00700000	    110.06853483	    943.46082036	     -7.85355338	      1.98368742	      0.00000000	      1.00912911	     -0.00000000	      3.90921261	     -0.00000000	      0.00000000	      0.00000000	      0.00000000	      0.00000000	      0.00000000	      0.00000000	      0.00000000	      0.00000000	      0.00000000
     15.00800000	    111.31852457	    930.28199532	     -7.07472759	      1.98143310	      0.00000000	      1.00905217	     -0.00000000	      3.81057715	      0.00000000	      0.00000000	      0.00000000	      0.00000000	      0.00000000	      0.00000000	      0.00000000	      0.00000000	      0.00000000	      0.00000000
     15.00900000	    112.56851432	    917.10317028	     -6.29590180	      1.97917878	      0.00000000	      1.00897524	     -0.00000000	      3.71194170	      0.00000000	      0.00000000	      0.00000000	      0.00000000	      0.00000000	      0.00000000	      0.00000000	      0.00000000	      0.00000000	      0.00000000
     15.01000000	    113.81850406	    903.92434524	     -5.51707601	      1.97692446	      0.00000000	      1.00889830	     -0.00000000	      3.61330624	      0.00000000	      0.00000000	      0.00000000	      0.00000000	      0.00000000	      0.00000000	      0.00000000	      0.00000000	      0.00000000	      0.00000000
     15.01100000	    114.78191268	    890.42310076	     -4.79715717	      1.97465601	      0.00000000	      1.00882694	     -0.00000000	      3.51455660	      0.00000000	      0.00000000	      0.00000000	      0.00000000	      0.00000000	      0.00000000	      0.00000000	      0.00000000	      0.00000000	      0.00000000
     15.01200000	    115.74532130	    876.92185629	     -4.07723832	      1.97238756	      0.00000000	      1.00875558	     -0.00000000	      3.41580695	      0.00000000	      0.00000000	      0.00000000	      0.00000000	      0.00000000	      0.00000000	      0.00000000	      0.00000000	      0.00000000	      0.00000000
     15.01300000	    116.70872993	    863.42061182	     -3.35731948	      1.97011911	      0.00000000	      1.00868421	     -0.00000000	      3.31705730	      0.00000000	      0.00000000	      0.00000000	      0.00000000	      0.00000000	      0.00000000	      0.00000000	      0.00000000	      0.00000000	      0.00000000
     15.01400000	    117.47347442	    849.74772688	     -2.68275625	      1.96784382	      0.00000000	      1.00861992	     -0.00000000	      3.21887553	      0.00000000	      0.00000000	      0.00000000	      0.00000000	      0.00000000	      0.00000000	      0.00000000	      0.00000000	      0.00000000	      0.00000000
     15.01500000	    118.13888685	    835.98902171	     -2.03087082	      1.96556510	      0.00000000	      1.00855916	     -0.00000000	      3.12097768	      0.00000000	      0.00000000	      0.00000000	      0.00000000	      0.00000000	      0.00000000	      0.00000000	      0.00000000	      0.00000000	      0.00000000
     15.01600000	    118.80429928	    822.23031654	     -1.37898539	      1.96328639	      0.00000000	      1.00849839	     -0.00000000	      3.02307983	      0.00000000	      0.00000000	      0.00000000	      0.00000000	      0.00000000	      0.00000000	      0.00000000	      0.00000000	      0.00000000	      0.00000000
